<svg width="100" height="100" viewBox="0 0 100 100" fill="none" xmlns="http://www.w3.org/2000/svg">
  <!-- Outer Blast (Red) -->
  <path d="M50 5 L60 30 L95 25 L75 50 L90 85 L50 70 L10 85 L25 50 L5 25 L40 30 Z" fill="#ef4444"/>
  <!-- Middle Blast (Orange) -->
  <path d="M50 15 L58 35 L85 30 L70 50 L80 75 L50 65 L20 75 L30 50 L15 30 L42 35 Z" fill="#f97316"/>
  <!-- Inner Blast (Yellow) -->
  <path d="M50 25 L55 40 L70 38 L60 50 L65 65 L50 60 L35 65 L40 50 L30 38 L45 40 Z" fill="#fde047"/>
</svg>
